<svg xmlns="http://www.w3.org/2000/svg"  viewBox="0 0 64 64" width="48px" height="48px"><path d="M32,10c12.15,0,22,9.85,22,22s-9.85,22-22,22s-22-9.85-22-22S19.85,10,32,10z M42.712,38.613	c0.476-0.482,0.546-1.005,0.391-1.503c-0.204-0.655-0.921-0.881-1.335-1.118c-2.268-1.298-2.631-2.538-2.739-2.722	c-0.043-0.074-0.15-0.32,0.091-0.517c0.223-0.182,1.413-0.76,1.913-1.632c0.26-0.452,0.328-1.142,0.094-1.623	c-0.375-0.77-0.996-1.219-1.857-1.219c-0.315,0-0.633,0.081-0.679,0.092c-0.017-0.497-0.018-1.072-0.05-1.59	C38.409,24.613,36.59,21,32,21s-6.409,3.613-6.542,5.78c-0.032,0.519-0.033,1.094-0.05,1.59c-0.046-0.011-0.364-0.092-0.679-0.092	c-0.861,0-1.482,0.449-1.857,1.219c-0.234,0.481-0.166,1.171,0.094,1.623c0.501,0.871,1.691,1.45,1.913,1.632	c0.241,0.197,0.135,0.443,0.091,0.517c-0.107,0.184-0.471,1.424-2.739,2.722c-0.414,0.237-1.13,0.464-1.335,1.118	c-0.155,0.498-0.085,1.021,0.391,1.503c0.759,0.768,2.085,0.96,2.252,1.118s0.241,0.76,0.776,1.103	c0.534,0.344,1.193,0.335,1.531,0.36c1.36,0.104,1.716,0.167,2.564,0.708C28.685,42.077,30.03,43,32,43s3.315-0.923,3.589-1.098	c0.848-0.541,1.204-0.604,2.564-0.708c0.338-0.026,0.997-0.017,1.531-0.36c0.534-0.344,0.608-0.945,0.776-1.103	S41.953,39.381,42.712,38.613z"/></svg>